<svg width="12" height="12" viewBox="0 0 12 12" fill="none" xmlns="http://www.w3.org/2000/svg">
<path d="M10.2773 9.00234V6.49453H1.72263V9.00234C1.72263 9.87422 1.57263 10.6898 1.57029 10.6957C1.5363 10.8188 1.56091 10.9512 1.63826 11.0531C1.7156 11.1551 1.83513 11.2148 1.96287 11.2148H3.34451V8.11758C3.34451 8.03555 3.41013 7.96992 3.49216 7.96992H3.63982C3.72068 7.96992 3.78748 8.03555 3.78748 8.11758V11.2148H4.96755V8.11758C4.96755 8.03555 5.03318 7.96992 5.11521 7.96992H5.26287C5.34373 7.96992 5.41052 8.03555 5.41052 8.11758V11.2148H6.5906V8.11758C6.5906 8.03555 6.65623 7.96992 6.73826 7.96992H6.88591C6.96794 7.96992 7.03357 8.03555 7.03357 8.11758V11.2148H8.21365V8.11758C8.21365 8.03555 8.27927 7.96992 8.3613 7.96992H8.50779C8.58865 7.96992 8.65544 8.03555 8.65544 8.11758V11.2148H10.0371C10.1648 11.2148 10.2844 11.1551 10.3617 11.0531C10.439 10.9512 10.4636 10.8188 10.4297 10.6957C10.4273 10.6887 10.2773 9.88008 10.2773 9.00234ZM10.2773 3.98789H7.1531V1.96523C7.1531 1.33711 6.67029 0.785156 6.03748 0.785156H5.96248C5.32966 0.785156 4.84685 1.33711 4.84685 1.96523V3.98789H1.72263C1.38044 3.98789 1.13318 4.32891 1.13318 4.66758V5.4375C1.13318 5.77617 1.41091 6.05273 1.7531 6.05273H10.248C10.5902 6.05273 10.8679 5.77734 10.8679 5.4375V4.66758C10.8668 4.32891 10.6183 3.98789 10.2773 3.98789ZM5.99998 2.33086C5.76677 2.33086 5.57693 2.14219 5.57693 1.90781C5.57693 1.67461 5.7656 1.48477 5.99998 1.48477C6.23318 1.48477 6.42302 1.67344 6.42302 1.90781C6.42302 2.14219 6.23318 2.33086 5.99998 2.33086Z" fill="#666"/>
</svg>
