<svg width="12" height="12" viewBox="0 0 12 12" fill="none" xmlns="http://www.w3.org/2000/svg">
<path d="M1.872 1.194H4.422C5.022 1.194 5.322 1.494 5.322 2.094V4.644C5.322 5.244 5.022 5.544 4.422 5.544H1.872C1.272 5.544 0.972 5.244 0.972 4.644V2.094C0.972 1.494 1.272 1.194 1.872 1.194Z" fill="#888"/>
<path d="M8.796 0.84C10.398 0.84 11.196 1.638 11.196 3.24C11.196 4.842 10.398 5.64 8.796 5.64C7.194 5.64 6.396 4.842 6.396 3.24C6.396 1.644 7.2 0.84 8.796 0.84Z" fill="#888"/>
<path d="M7.65 6.81H10.2C10.8 6.81 11.1 7.11 11.1 7.71V10.26C11.1 10.86 10.8 11.16 10.2 11.16H7.65C7.05 11.16 6.75 10.86 6.75 10.26V7.71C6.75 7.11 7.05 6.81 7.65 6.81Z" fill="#888"/>
<path d="M3.648 7.116L5.52 10.248C5.67 10.494 5.586 10.818 5.34 10.968C5.256 11.016 5.166 11.04 5.07 11.04H1.326C1.038 11.04 0.798 10.806 0.798 10.518C0.798 10.422 0.822 10.332 0.87 10.248L2.742 7.116C2.892 6.87 3.21 6.786 3.462 6.936C3.54 6.978 3.606 7.038 3.648 7.116Z" fill="#888"/>
</svg>
