<svg width="12" height="12" viewBox="0 0 12 12" fill="none" xmlns="http://www.w3.org/2000/svg">
<path d="M9.94737 2C10.2265 2 10.4943 2.10557 10.6917 2.2935C10.8891 2.48142 11 2.7363 11 3.00207V8.51346C11 8.64505 10.9728 8.77535 10.9199 8.89693C10.867 9.01851 10.7894 9.12898 10.6917 9.22203C10.5939 9.31508 10.4779 9.38889 10.3502 9.43925C10.2225 9.48961 10.0856 9.51553 9.94737 9.51553H7.8421L6.79211 10.6579C6.69331 10.7653 6.57152 10.8515 6.43491 10.9105C6.2983 10.9695 6.15002 11 6 11C5.84999 11 5.7017 10.9695 5.56509 10.9105C5.42848 10.8515 5.30669 10.7653 5.2079 10.6579L4.15789 9.51553H2.05263C1.9144 9.51553 1.77752 9.48961 1.64981 9.43925C1.5221 9.38889 1.40605 9.31508 1.30831 9.22203C1.21056 9.12898 1.13303 9.01851 1.08013 8.89693C1.02723 8.77535 1 8.64505 1 8.51346V3.00207C1 2.7363 1.1109 2.48142 1.30831 2.2935C1.50572 2.10557 1.77346 2 2.05263 2H9.94737ZM3.63158 5.25673C3.56246 5.25672 3.49401 5.26967 3.43014 5.29485C3.36628 5.32002 3.30825 5.35692 3.25937 5.40345C3.21048 5.44998 3.17171 5.50521 3.14525 5.56601C3.1188 5.6268 3.10518 5.69196 3.10518 5.75776C3.10518 5.82357 3.1188 5.88873 3.14525 5.94952C3.17171 6.01031 3.21048 6.06555 3.25937 6.11208C3.30825 6.1586 3.36628 6.19551 3.43014 6.22068C3.49401 6.24586 3.56246 6.25881 3.63158 6.2588C3.77115 6.25878 3.905 6.20598 4.00369 6.11202C4.10237 6.01806 4.15781 5.89063 4.15781 5.75776C4.15781 5.62489 4.10237 5.49746 4.00369 5.4035C3.905 5.30954 3.77115 5.25675 3.63158 5.25673ZM6 5.25673C5.93088 5.25672 5.86243 5.26967 5.79856 5.29485C5.7347 5.32002 5.67667 5.35692 5.62779 5.40345C5.57891 5.44998 5.54013 5.50521 5.51367 5.56601C5.48722 5.6268 5.4736 5.69196 5.4736 5.75776C5.4736 5.82357 5.48722 5.88873 5.51367 5.94952C5.54013 6.01031 5.57891 6.06555 5.62779 6.11208C5.67667 6.1586 5.7347 6.19551 5.79856 6.22068C5.86243 6.24586 5.93088 6.25881 6 6.2588C6.13957 6.25878 6.27342 6.20598 6.37211 6.11202C6.4708 6.01806 6.52624 5.89063 6.52624 5.75776C6.52624 5.62489 6.4708 5.49746 6.37211 5.4035C6.27342 5.30954 6.13957 5.25675 6 5.25673ZM8.36842 5.25673C8.2993 5.25672 8.23085 5.26967 8.16698 5.29485C8.10312 5.32002 8.04509 5.35692 7.99621 5.40345C7.94733 5.44998 7.90855 5.50521 7.8821 5.56601C7.85564 5.6268 7.84202 5.69196 7.84202 5.75776C7.84202 5.82357 7.85564 5.88873 7.8821 5.94952C7.90855 6.01031 7.94733 6.06555 7.99621 6.11208C8.04509 6.1586 8.10312 6.19551 8.16698 6.22068C8.23085 6.24586 8.2993 6.25881 8.36842 6.2588C8.50799 6.25878 8.64184 6.20598 8.74053 6.11202C8.83922 6.01806 8.89466 5.89063 8.89466 5.75776C8.89466 5.62489 8.83922 5.49746 8.74053 5.4035C8.64184 5.30954 8.50799 5.25675 8.36842 5.25673Z" fill="#222"/>
</svg>
