<svg width="12" height="13" viewBox="0 0 12 13" fill="none" xmlns="http://www.w3.org/2000/svg">
<path d="M11.0012 9.27367V7.19284C11.0012 6.3429 10.3513 5.69304 9.5014 5.69304H6.5002V3.1112C7.09243 2.91272 7.5006 2.3653 7.5006 1.69144C7.5006 0.841495 6.85074 0.191635 6.0008 0.191635C5.15086 0.191635 4.501 0.841495 4.501 1.69144C4.501 2.3653 4.90916 2.91272 5.5014 3.1112V5.69143H2.5002C1.65026 5.69143 1.0004 6.34129 1.0004 7.19123V9.27207C0.408163 9.47055 0 10.018 0 10.6918C0 11.5418 0.64986 12.1916 1.4998 12.1916C2.34974 12.1916 2.9996 11.5418 2.9996 10.6918C2.9996 10.018 2.59144 9.47055 1.9992 9.27207V7.19123C1.9992 6.89192 2.19928 6.69183 2.4986 6.69183H5.4998V9.27207C4.90756 9.47055 4.4994 10.018 4.4994 10.6918C4.4994 11.5418 5.14926 12.1916 5.9992 12.1916C6.84914 12.1916 7.499 11.5418 7.499 10.6918C7.499 10.018 7.09083 9.47055 6.4986 9.27207V6.69183H9.4998C9.79912 6.69183 9.99919 6.89192 9.99919 7.19123V9.27207C9.40696 9.47055 8.99879 10.018 8.99879 10.6918C8.99879 11.5418 9.64866 12.1916 10.4986 12.1916C11.3485 12.1916 11.9984 11.5418 11.9984 10.6918C12.0016 10.0196 11.5934 9.47215 11.0012 9.27367V9.27367ZM1.4998 11.1928C1.20048 11.1928 1.0004 10.9928 1.0004 10.6934C1.0004 10.3941 1.20048 10.194 1.4998 10.194C1.79912 10.194 1.9992 10.3941 1.9992 10.6934C2.0008 10.9928 1.80072 11.1928 1.4998 11.1928ZM6.0008 1.19204C6.30012 1.19204 6.5002 1.39212 6.5002 1.69144C6.5002 1.99075 6.30012 2.19244 6.0008 2.19244C5.70148 2.19244 5.5014 1.99236 5.5014 1.69304C5.5014 1.39372 5.70148 1.19204 6.0008 1.19204ZM6.0008 11.1928C5.70148 11.1928 5.5014 10.9928 5.5014 10.6934C5.5014 10.3941 5.70148 10.194 6.0008 10.194C6.30012 10.194 6.5002 10.3941 6.5002 10.6934C6.5002 10.9928 6.30012 11.1928 6.0008 11.1928ZM10.5018 11.1928C10.2025 11.1928 10.0024 10.9928 10.0024 10.6934C10.0024 10.3941 10.2025 10.194 10.5018 10.194C10.8011 10.194 11.0012 10.3941 11.0012 10.6934C11.0012 10.9928 10.8011 11.1928 10.5018 11.1928Z" fill="#0A84FF"/>
</svg>
