<svg width="32" height="32" viewBox="0 0 32 32" fill="none" xmlns="http://www.w3.org/2000/svg">
<path d="M29 4H3C2.46957 4 1.96086 4.21071 1.58579 4.58579C1.21071 4.96086 1 5.46957 1 6V26C1 26.5304 1.21071 27.0391 1.58579 27.4142C1.96086 27.7893 2.46957 28 3 28H29C29.5304 28 30.0391 27.7893 30.4142 27.4142C30.7893 27.0391 31 26.5304 31 26V6C31 5.46957 30.7893 4.96086 30.4142 4.58579C30.0391 4.21071 29.5304 4 29 4V4ZM29.5 25.5C29.5 25.7652 29.3946 26.0196 29.2071 26.2071C29.0196 26.3946 28.7652 26.5 28.5 26.5H3.5C3.23478 26.5 2.98043 26.3946 2.79289 26.2071C2.60536 26.0196 2.5 25.7652 2.5 25.5V6.5C2.5 6.23478 2.60536 5.98043 2.79289 5.79289C2.98043 5.60536 3.23478 5.5 3.5 5.5H28.5C28.7652 5.5 29.0196 5.60536 29.2071 5.79289C29.3946 5.98043 29.5 6.23478 29.5 6.5V25.5Z" fill="#F5B748"/>
<path d="M28.5 5.5H3.5C3.23478 5.5 2.98043 5.60536 2.79289 5.79289C2.60536 5.98043 2.5 6.23478 2.5 6.5V25.5C2.5 25.7652 2.60536 26.0196 2.79289 26.2071C2.98043 26.3946 3.23478 26.5 3.5 26.5H28.5C28.7652 26.5 29.0196 26.3946 29.2071 26.2071C29.3946 26.0196 29.5 25.7652 29.5 25.5V6.5C29.5 6.23478 29.3946 5.98043 29.2071 5.79289C29.0196 5.60536 28.7652 5.5 28.5 5.5ZM5.503 22.918H4.003V18.418H5.503V22.918ZM10.002 22.918H8.502V18.418H10.002V22.918ZM14.501 22.918H13.001V18.418H14.501V22.918ZM15.305 13.472V14.669H13.815V13.472L11.398 13.471C11.2311 14.3775 10.7343 15.19 10.0036 15.7518C9.27291 16.3136 8.36003 16.5849 7.4411 16.5133C6.52217 16.4418 5.6623 16.0324 5.0274 15.3642C4.39251 14.696 4.02757 13.8164 4.003 12.895C3.98371 11.9727 4.30707 11.076 4.91055 10.3783C5.51404 9.68053 6.3548 9.23133 7.27026 9.11752C8.18572 9.00371 9.11087 9.23337 9.86683 9.76209C10.6228 10.2908 11.1559 11.081 11.363 11.98H17.503L17.504 11.996H17.518V14.668H16.029V13.471H15.305V13.472ZM18.999 22.918H17.499V18.418H18.999V22.918ZM23.498 22.918H21.998V18.418H23.498V22.918ZM23.498 13.479H21.998V11.979H23.498V13.479ZM27.997 22.918H26.497V18.418H27.997V22.918ZM27.997 13.479H26.497V11.979H27.997V13.479ZM9.311 11.228C9.52581 11.4339 9.69737 11.6806 9.81563 11.9536C9.93389 12.2266 9.99647 12.5205 9.9997 12.818C10.0029 13.1156 9.94674 13.4107 9.83444 13.6863C9.72213 13.9618 9.55597 14.2121 9.34567 14.4226C9.13538 14.6331 8.88519 14.7995 8.60976 14.9121C8.33434 15.0247 8.03921 15.0811 7.74169 15.0782C7.44416 15.0752 7.15021 15.0129 6.87707 14.8949C6.60393 14.7769 6.35708 14.6056 6.151 14.391C5.74583 13.969 5.52215 13.4051 5.52794 12.8202C5.53373 12.2352 5.76854 11.6758 6.18199 11.262C6.59544 10.8481 7.15461 10.6128 7.73956 10.6064C8.32452 10.6001 8.88866 10.8232 9.311 11.228V11.228Z" fill="#FFD63D"/>
<path d="M17.518 14.668V11.996H17.504L17.503 11.98H11.363C11.2095 11.3083 10.8727 10.6924 10.3901 10.2006C9.90758 9.70883 9.2981 9.36049 8.62945 9.19429C7.9608 9.0281 7.25916 9.05056 6.60251 9.25918C5.94586 9.4678 5.35991 9.8544 4.90978 10.376C4.45965 10.8977 4.16297 11.5339 4.05271 12.214C3.94245 12.8941 4.02293 13.5915 4.2852 14.2286C4.54748 14.8657 4.98127 15.4177 5.53838 15.8231C6.09549 16.2284 6.7541 16.4714 7.44101 16.525C8.36185 16.5967 9.27653 16.324 10.0078 15.7598C10.739 15.1955 11.2348 14.3799 11.399 13.471L13.816 13.472V14.669H15.306V13.472H16.03V14.669H17.518V14.668ZM9.31101 14.391C9.10332 14.5986 8.85677 14.7633 8.58545 14.8756C8.31412 14.988 8.02332 15.0458 7.72965 15.0457C7.43599 15.0457 7.14521 14.9878 6.87391 14.8754C6.60262 14.7629 6.35613 14.5982 6.14851 14.3905C5.7292 13.9711 5.49369 13.4022 5.49378 12.8091C5.49387 12.2161 5.72957 11.6473 6.14901 11.228C6.56845 10.8087 7.13728 10.5732 7.73036 10.5733C8.32344 10.5734 8.8922 10.8091 9.31151 11.2285C9.73081 11.6479 9.96633 12.2168 9.96623 12.8098C9.96614 13.4029 9.73045 13.9717 9.31101 14.391ZM13.001 18.418H14.501V22.918H13.001V18.418ZM8.50201 22.918H10.002V18.418H8.50201V22.918ZM4.00301 22.918H5.50301V18.418H4.00301V22.918ZM17.499 22.918H18.999V18.418H17.499V22.918ZM26.497 13.479H27.997V11.979H26.497V13.479ZM26.497 22.918H27.997V18.418H26.497V22.918ZM21.998 13.479H23.498V11.979H21.998V13.479ZM21.998 22.918H23.498V18.418H21.998V22.918Z" fill="#676767"/>
</svg>
