<svg width="12" height="12" viewBox="0 0 12 12" fill="none" xmlns="http://www.w3.org/2000/svg">
<path d="M5.9762 4.87462C5.35483 4.87462 4.85101 5.37862 4.85101 6C4.85101 6.62156 5.35483 7.12537 5.9762 7.12537C6.59739 7.12537 7.1012 6.62137 7.1012 6C7.1012 5.37843 6.59758 4.87462 5.9762 4.87462ZM2.4137 4.87462C1.79233 4.87462 1.28851 5.37862 1.28851 6C1.28851 6.62156 1.79233 7.12537 2.4137 7.12537C3.03489 7.12537 3.5387 6.62137 3.5387 6C3.5387 5.37843 3.03508 4.87462 2.4137 4.87462ZM9.5387 4.87462C8.91733 4.87462 8.41351 5.37862 8.41351 6C8.41351 6.62156 8.91733 7.12537 9.5387 7.12537C10.1599 7.12537 10.6637 6.62137 10.6637 6C10.6637 5.37843 10.1601 4.87462 9.5387 4.87462Z" fill="black"/>
</svg>
