<svg width="12" height="12" viewBox="0 0 12 12" fill="none" xmlns="http://www.w3.org/2000/svg">
<path d="M1.152 1.16363L10.416 10.3436C10.626 10.5536 10.626 10.8896 10.416 11.0996C10.206 11.3096 9.87 11.3096 9.66 11.0996L7.632 9.10763H7.296C6.912 9.10763 6.594 8.79563 6.594 8.40563V8.08163L4.638 6.13163H4.302C3.918 6.13163 3.6 5.81963 3.6 5.42963V5.10563L2.094 3.61163C1.5 4.05563 1.14 4.75163 1.14 5.53163C1.14 6.86963 2.244 7.96763 3.6 7.96763H4.836C5.148 7.96763 5.394 8.22563 5.394 8.52563C5.394 8.83763 5.136 9.08363 4.836 9.08363H3.6C1.608 9.10763 0 7.51163 0 5.53163C0 4.43363 0.504 3.44363 1.284 2.80763L0.384 1.90763C0.174 1.70363 0.174 1.36163 0.384 1.15163C0.594 0.941628 0.93 0.953629 1.152 1.16363ZM11.988 5.53163C11.988 6.84563 11.268 8.00363 10.194 8.62163L9.354 7.78163C10.242 7.40963 10.86 6.54563 10.86 5.54363C10.86 4.19363 9.762 3.10763 8.4 3.10763H7.164C6.852 3.10763 6.606 2.84963 6.606 2.54963C6.606 2.23763 6.864 1.99163 7.164 1.99163H8.388C10.38 1.96763 11.988 3.56363 11.988 5.53163ZM5.394 2.53763C5.394 2.84963 5.136 3.09563 4.836 3.09563H4.638L3.498 1.96763H4.836C5.136 1.96763 5.394 2.22563 5.394 2.53763ZM8.388 5.53163C8.388 5.85563 8.118 6.12563 7.794 6.12563H7.68L6.492 4.93763H7.806C8.13 4.93763 8.388 5.20763 8.388 5.53163Z" fill="#8D8D8D"/>
</svg>
