<svg width="12" height="12" viewBox="0 0 12 12" fill="none" xmlns="http://www.w3.org/2000/svg">
<path d="M7.364 8.071C7.45067 8.15761 7.50252 8.27302 7.50971 8.39534C7.51689 8.51765 7.47892 8.63834 7.403 8.7345L7.364 8.778L6.3035 9.839C6.07173 10.0728 5.79605 10.2586 5.4923 10.3855C5.18855 10.5125 4.86271 10.5783 4.53349 10.579C4.20426 10.5797 3.87813 10.5154 3.57383 10.3897C3.26953 10.2641 2.99304 10.0796 2.76024 9.84676C2.52745 9.61396 2.34292 9.33748 2.21727 9.03317C2.09161 8.72887 2.0273 8.40275 2.02802 8.07352C2.02874 7.7443 2.09448 7.41845 2.22147 7.11471C2.34845 6.81096 2.53419 6.53528 2.768 6.3035L3.828 5.2425L3.872 5.204C3.96812 5.12809 4.08875 5.0901 4.21102 5.09723C4.33329 5.10437 4.44869 5.15613 4.53533 5.24271C4.62196 5.32928 4.67381 5.44464 4.68103 5.56691C4.68825 5.68917 4.65035 5.80983 4.5745 5.906L4.5355 5.9495L3.475 7.0105C3.20077 7.28675 3.04466 7.65878 3.03966 8.048C3.03465 8.43722 3.18114 8.81314 3.44819 9.09634C3.71523 9.37955 4.0819 9.54785 4.47074 9.5657C4.85958 9.58355 5.24014 9.44955 5.532 9.192L5.596 9.132L6.657 8.071L6.7005 8.032C6.79667 7.95608 6.91736 7.91811 7.03967 7.9253C7.16198 7.93249 7.2774 7.98434 7.364 8.071ZM8.071 4.536C8.16459 4.62975 8.21715 4.75679 8.21715 4.88925C8.21715 5.02171 8.16459 5.14876 8.071 5.2425L5.2425 8.071C5.1482 8.16208 5.0219 8.21248 4.8908 8.21134C4.7597 8.2102 4.6343 8.15762 4.54159 8.06491C4.44889 7.97221 4.39631 7.8468 4.39517 7.7157C4.39403 7.58461 4.44442 7.4583 4.5355 7.364L7.364 4.5355C7.45777 4.44177 7.58492 4.38911 7.7175 4.38911C7.85009 4.38911 7.97724 4.44177 8.071 4.5355V4.536ZM9.839 2.768C10.3077 3.23682 10.571 3.87259 10.571 4.5355C10.571 5.19841 10.3077 5.83418 9.839 6.303L8.778 7.364C8.68785 7.45441 8.56653 7.5069 8.43892 7.51072C8.3113 7.51455 8.18706 7.46941 8.09166 7.38456C7.99626 7.29971 7.93694 7.18158 7.92584 7.05439C7.91475 6.9272 7.95273 6.80059 8.032 6.7005L8.071 6.657L9.1315 5.596C9.40276 5.31919 9.55634 4.94812 9.56007 4.56058C9.56379 4.17303 9.41737 3.79908 9.15149 3.5171C8.88561 3.23512 8.5209 3.067 8.1338 3.04797C7.74671 3.02893 7.36727 3.16047 7.075 3.415L7.011 3.475L5.95 4.536C5.85964 4.62544 5.73861 4.67709 5.61152 4.68046C5.48443 4.68383 5.36083 4.63866 5.26586 4.55414C5.17089 4.46961 5.11168 4.35209 5.10028 4.22546C5.08889 4.09884 5.12615 3.97263 5.2045 3.8725L5.243 3.829L6.304 2.7685C6.77282 2.29983 7.40859 2.03654 8.0715 2.03654C8.73441 2.03654 9.37018 2.29983 9.839 2.7685V2.768Z" fill="#8D8D8D"/>
</svg>
