<svg width="12" height="12" viewBox="0 0 12 12" fill="none" xmlns="http://www.w3.org/2000/svg">
<path d="M1.40039 1.875H0.837891C0.786328 1.875 0.744141 1.91719 0.744141 1.96875V10.0312C0.744141 10.0828 0.786328 10.125 0.837891 10.125H1.40039C1.45195 10.125 1.49414 10.0828 1.49414 10.0312V1.96875C1.49414 1.91719 1.45195 1.875 1.40039 1.875ZM11.1621 1.875H10.5996C10.548 1.875 10.5059 1.91719 10.5059 1.96875V10.0312C10.5059 10.0828 10.548 10.125 10.5996 10.125H11.1621C11.2137 10.125 11.2559 10.0828 11.2559 10.0312V1.96875C11.2559 1.91719 11.2137 1.875 11.1621 1.875ZM2.33789 8.625H3.65039C3.70195 8.625 3.74414 8.58281 3.74414 8.53125V1.96875C3.74414 1.91719 3.70195 1.875 3.65039 1.875H2.33789C2.28633 1.875 2.24414 1.91719 2.24414 1.96875V8.53125C2.24414 8.58281 2.28633 8.625 2.33789 8.625ZM6.09961 8.625H6.66211C6.71367 8.625 6.75586 8.58281 6.75586 8.53125V1.96875C6.75586 1.91719 6.71367 1.875 6.66211 1.875H6.09961C6.04805 1.875 6.00586 1.91719 6.00586 1.96875V8.53125C6.00586 8.58281 6.04805 8.625 6.09961 8.625ZM7.57617 8.625H9.66211C9.71367 8.625 9.75586 8.58281 9.75586 8.53125V1.96875C9.75586 1.91719 9.71367 1.875 9.66211 1.875H7.57617C7.52461 1.875 7.48242 1.91719 7.48242 1.96875V8.53125C7.48242 8.58281 7.52461 8.625 7.57617 8.625ZM4.58789 8.625H5.15039C5.20195 8.625 5.24414 8.58281 5.24414 8.53125V1.96875C5.24414 1.91719 5.20195 1.875 5.15039 1.875H4.58789C4.53633 1.875 4.49414 1.91719 4.49414 1.96875V8.53125C4.49414 8.58281 4.53633 8.625 4.58789 8.625ZM3.66211 9.375H2.34961C2.29805 9.375 2.25586 9.41719 2.25586 9.46875V10.0312C2.25586 10.0828 2.29805 10.125 2.34961 10.125H3.66211C3.71367 10.125 3.75586 10.0828 3.75586 10.0312V9.46875C3.75586 9.41719 3.71367 9.375 3.66211 9.375ZM6.67383 9.375H6.11133C6.05977 9.375 6.01758 9.41719 6.01758 9.46875V10.0312C6.01758 10.0828 6.05977 10.125 6.11133 10.125H6.67383C6.72539 10.125 6.76758 10.0828 6.76758 10.0312V9.46875C6.76758 9.41719 6.72539 9.375 6.67383 9.375ZM9.67383 9.375H7.58789C7.53633 9.375 7.49414 9.41719 7.49414 9.46875V10.0312C7.49414 10.0828 7.53633 10.125 7.58789 10.125H9.67383C9.72539 10.125 9.76758 10.0828 9.76758 10.0312V9.46875C9.76758 9.41719 9.72539 9.375 9.67383 9.375ZM5.16211 9.375H4.59961C4.54805 9.375 4.50586 9.41719 4.50586 9.46875V10.0312C4.50586 10.0828 4.54805 10.125 4.59961 10.125H5.16211C5.21367 10.125 5.25586 10.0828 5.25586 10.0312V9.46875C5.25586 9.41719 5.21367 9.375 5.16211 9.375Z" fill="#636363"/>
</svg>
