<svg width="12" height="12" viewBox="0 0 12 12" fill="none" xmlns="http://www.w3.org/2000/svg">
<path d="M9.59871 6.93138L8.97037 6.28704C8.97984 6.19042 8.98441 6.09337 8.98408 5.99629C8.98436 5.8992 8.97978 5.80216 8.97037 5.70553L9.59871 5.06348C9.69044 5.01053 9.75742 4.92335 9.78494 4.82108C9.81246 4.71881 9.79829 4.60979 9.74552 4.51796L9.1463 3.47947C9.09345 3.38765 9.00632 3.32055 8.90404 3.29292C8.80175 3.26529 8.69269 3.27938 8.60078 3.3321L7.7291 3.55659C7.57096 3.44343 7.40224 3.34586 7.22528 3.26526L6.98479 2.39986C6.98479 2.29381 6.94266 2.1921 6.86767 2.11712C6.79269 2.04213 6.69098 2 6.58493 2H5.38536C5.27931 2 5.17761 2.04213 5.10262 2.11712C5.02763 2.1921 4.9855 2.29381 4.9855 2.39986L4.74502 3.26755C4.56806 3.34792 4.39932 3.44529 4.2412 3.5583L3.36951 3.33381C3.27761 3.28109 3.16854 3.267 3.06626 3.29463C2.96398 3.32226 2.87684 3.38936 2.82399 3.48119L2.22706 4.51967C2.17434 4.61157 2.16025 4.72064 2.18788 4.82292C2.21551 4.9252 2.28261 5.01234 2.37444 5.06519L3.00278 5.70725C2.99331 5.80387 2.98874 5.90091 2.98907 5.998C2.98907 6.09568 2.99364 6.19222 3.00278 6.28875L2.37444 6.93081C2.28261 6.98366 2.21551 7.0708 2.18788 7.17308C2.16025 7.27536 2.17434 7.38443 2.22706 7.47633L2.82627 8.51482C2.87913 8.60664 2.96626 8.67374 3.06854 8.70137C3.17082 8.729 3.27989 8.71491 3.37179 8.66219L4.24348 8.4377C4.40164 8.55066 4.57037 8.64803 4.7473 8.72845L4.98779 9.59614C4.98779 9.70219 5.02992 9.8039 5.1049 9.87889C5.17989 9.95387 5.2816 9.996 5.38765 9.996H6.58722C6.69327 9.996 6.79497 9.95387 6.86996 9.87889C6.94495 9.8039 6.98707 9.70219 6.98707 9.59614L7.22756 8.72845C7.40453 8.6481 7.57327 8.55073 7.73138 8.4377L8.6025 8.66219C8.6944 8.71491 8.80347 8.729 8.90575 8.70137C9.00803 8.67374 9.09517 8.60664 9.14802 8.51482L9.74723 7.47633C9.79968 7.38434 9.81349 7.27531 9.78565 7.17315C9.75781 7.07099 9.69058 6.98404 9.59871 6.93138ZM5.98515 7.3975C5.61422 7.3972 5.25857 7.24971 4.99629 6.98743C4.734 6.72515 4.58652 6.3695 4.58622 5.99857C4.58652 5.62765 4.734 5.272 4.99629 5.00971C5.25857 4.74743 5.61422 4.59995 5.98515 4.59964C6.35607 4.59995 6.71172 4.74743 6.974 5.00971C7.23629 5.272 7.38377 5.62765 7.38408 5.99857C7.38362 6.36945 7.23609 6.72501 6.97384 6.98726C6.71159 7.24951 6.35603 7.39705 5.98515 7.3975Z" fill="#8D8D8D"/>
</svg>
