<svg width="12" height="12" viewBox="0 0 12 12" fill="none" xmlns="http://www.w3.org/2000/svg">
<path d="M3.15 3H8.925C9.375 3 9.75 3.375 9.75 3.9V6.675C9.75 7.125 9.375 7.575 8.85 7.575H3.15C2.625 7.5 2.25 7.125 2.25 6.6V3.9C2.25 3.375 2.625 3 3.15 3ZM9.375 11.25H2.625C2.4 11.25 2.25 11.1 2.25 10.875C2.25 10.65 2.4 10.5 2.625 10.5H9.375C9.6 10.5 9.75 10.65 9.75 10.875C9.75 11.1 9.6 11.25 9.375 11.25Z" fill="#0094FF"/>
<path d="M10.725 9.75H1.275C0.525 9.75 0 9.225 0 8.475V2.025C0 1.275 0.525 0.75 1.275 0.75H10.8C11.475 0.75 12 1.275 12 2.025V8.55C12 9.225 11.475 9.75 10.725 9.75ZM1.275 1.5C0.975 1.5 0.75 1.725 0.75 2.025V8.55C0.75 8.775 0.975 9 1.275 9H10.8C11.1 9 11.325 8.775 11.325 8.475V2.025C11.25 1.725 11.025 1.5 10.725 1.5H1.275Z" fill="#0094FF"/>
</svg>
