<svg width="12" height="12" viewBox="0 0 12 12" fill="none" xmlns="http://www.w3.org/2000/svg">
<path d="M6 0.75C8.8995 0.75 11.25 3.1005 11.25 6C11.25 8.8995 8.8995 11.25 6 11.25C3.1005 11.25 0.75 8.8995 0.75 6C0.75 3.1005 3.1005 0.75 6 0.75ZM6.00675 3.09375C5.90729 3.09375 5.81191 3.13326 5.74158 3.20359C5.67126 3.27391 5.63175 3.36929 5.63175 3.46875V6.09375C5.63175 6.1845 5.664 6.26812 5.71762 6.33337C5.73028 6.35165 5.74459 6.36872 5.76038 6.38437L8.01413 8.63812C8.08485 8.70643 8.17958 8.74423 8.2779 8.74338C8.37622 8.74252 8.47028 8.70309 8.53981 8.63356C8.60934 8.56403 8.64877 8.46997 8.64963 8.37165C8.65048 8.27333 8.61268 8.1786 8.54437 8.10788L6.38138 5.94487V3.46875C6.38138 3.36929 6.34187 3.27391 6.27154 3.20359C6.20121 3.13326 6.10583 3.09375 6.00638 3.09375H6.00675Z" fill="#636363"/>
</svg>
