<svg width="12" height="12" viewBox="0 0 12 12" fill="none" xmlns="http://www.w3.org/2000/svg">
<path d="M11.325 4.875L6.67498 0.300003C6.29998 -0.0749969 5.69998 -0.0749969 5.32498 0.300003L0.67498 4.875C0.0749799 5.4 0.52498 6.45 1.34998 6.45H3.59998V7.95C3.59998 8.475 4.04998 8.85 4.49998 8.85H7.49998C8.02498 8.85 8.39998 8.475 8.39998 7.95V6.45H10.65C11.475 6.45 11.925 5.4 11.325 4.875ZM3.97498 9.6H7.94998C8.17498 9.6 8.32498 9.75 8.32498 9.975C8.32498 10.2 8.17498 10.35 7.94998 10.35H3.97498C3.74998 10.35 3.59998 10.2 3.59998 9.975C3.59998 9.75 3.74998 9.6 3.97498 9.6V9.6ZM3.97498 11.175H7.94998C8.17498 11.175 8.32498 11.325 8.32498 11.55C8.32498 11.775 8.17498 11.925 7.94998 11.925H3.97498C3.74998 11.925 3.59998 11.775 3.59998 11.55C3.59998 11.4 3.74998 11.175 3.97498 11.175V11.175Z" fill="#636363"/>
</svg>
