<svg width="12" height="12" viewBox="0 0 12 12" fill="none" xmlns="http://www.w3.org/2000/svg">
<g clip-path="url(#clip0)">
<path d="M12 6C12 6.05799 11.9682 6.1141 11.9158 6.14029L10.2491 7.14107C10.2229 7.15604 10.1967 7.16726 10.1649 7.16726C10.1387 7.16726 10.1069 7.16165 10.0808 7.14668C10.0284 7.11488 9.99657 7.06251 9.99657 7.00078V6.33484H5.53141C6.00468 7.0756 6.28901 8.33452 6.83336 8.33452H7.33282V7.8332C7.33282 7.73967 7.40577 7.66671 7.4993 7.66671H9.16602C9.25955 7.66671 9.3325 7.73967 9.3325 7.8332V9.49992C9.3325 9.59345 9.25955 9.6664 9.16602 9.6664H7.4993C7.40577 9.6664 7.33282 9.59345 7.33282 9.49992V9.00046H6.83336C5.42292 9.00046 5.31629 6.33484 4.5007 6.33484H2.62447C2.47295 6.90724 1.95292 7.33562 1.33375 7.33562C0.598597 7.33374 0 6.73515 0 6C0 5.26485 0.598597 4.66625 1.33375 4.66625C1.95292 4.66625 2.47483 5.09275 2.62447 5.66703C3.35589 5.66703 3.44567 5.84474 4.01995 4.53718C4.77007 2.87046 5.10678 3.0014 6.05705 3.0014C6.19735 2.61044 6.56212 2.33546 6.99985 2.33546C7.55168 2.33546 8.00063 2.78254 8.00063 3.33624C8.00063 3.88994 7.55355 4.33702 6.99985 4.33702C6.56212 4.33702 6.19735 4.06017 6.05705 3.67108H5.49961C4.95526 3.67108 4.67093 4.93188 4.19766 5.67077H9.99844V5.00483C9.99844 4.9431 10.0302 4.89072 10.0826 4.85892C10.135 4.82712 10.2023 4.83273 10.2491 4.86453L11.9158 5.86531C11.9682 5.88589 12 5.94201 12 6Z" fill="#0085FF"/>
</g>
<defs>
<clipPath id="clip0">
<rect width="12" height="12" fill="white"/>
</clipPath>
</defs>
</svg>
