<svg width="24" height="24" viewBox="0 0 24 24" fill="none" xmlns="http://www.w3.org/2000/svg">
<path d="M11.9981 11.2718L7.88326 7.15702C7.83592 7.10794 7.77928 7.06877 7.71664 7.04182C7.654 7.01486 7.58662 7.00065 7.51842 7.00002C7.45023 6.99939 7.3826 7.01235 7.31947 7.03814C7.25634 7.06393 7.19898 7.10203 7.15074 7.15023C7.10249 7.19843 7.06434 7.25575 7.03849 7.31886C7.01264 7.38197 6.99962 7.44959 7.00019 7.51778C7.00076 7.58597 7.0149 7.65337 7.0418 7.71603C7.0687 7.7787 7.10781 7.83538 7.15685 7.88276L11.2717 11.9979L7.15685 16.1131C7.10779 16.1604 7.06865 16.2171 7.04172 16.2797C7.0148 16.3424 7.00062 16.4098 7.00002 16.478C6.99942 16.5462 7.01241 16.6138 7.03823 16.6769C7.06405 16.74 7.10218 16.7974 7.1504 16.8456C7.19862 16.8938 7.25597 16.932 7.31908 16.9578C7.3822 16.9836 7.44983 16.9966 7.51802 16.996C7.58621 16.9954 7.6536 16.9812 7.71626 16.9543C7.77891 16.9273 7.83557 16.8882 7.88293 16.8391L11.9981 12.7243L16.1132 16.8391C16.1604 16.889 16.2171 16.929 16.2799 16.9566C16.3428 16.9842 16.4105 16.999 16.4792 16.9999C16.5478 17.0009 16.6159 16.9881 16.6796 16.9623C16.7432 16.9365 16.801 16.8982 16.8495 16.8497C16.8981 16.8012 16.9364 16.7434 16.9622 16.6798C16.9881 16.6162 17.0009 16.548 17 16.4794C16.999 16.4107 16.9843 16.343 16.9567 16.2801C16.9291 16.2173 16.8892 16.1606 16.8393 16.1134L12.7245 11.9979L16.8393 7.88311C16.8884 7.83574 16.9275 7.77908 16.9544 7.71643C16.9814 7.65377 16.9956 7.58638 16.9962 7.51819C16.9968 7.45 16.9838 7.38237 16.9579 7.31926C16.9321 7.25614 16.894 7.19879 16.8458 7.15057C16.7976 7.10235 16.7402 7.06422 16.6771 7.0384C16.614 7.01258 16.5463 6.99959 16.4782 7.00019C16.41 7.00079 16.3426 7.01497 16.2799 7.04189C16.2173 7.06882 16.1606 7.10796 16.1132 7.15702L11.9984 11.2718H11.9981Z" fill="#222"/>
</svg>
