<?xml version="1.0" encoding="UTF-8"?>
<svg xmlns="http://www.w3.org/2000/svg" xmlns:xlink="http://www.w3.org/1999/xlink" viewBox="0 0 48 48" width="48px" height="48px">
<g id="surface52415158">
<path style="fill-rule:nonzero;fill:rgb(0.784314%,46.666667%,74.117649%);fill-opacity:1;stroke-width:11;stroke-linecap:butt;stroke-linejoin:round;stroke:rgb(20.392157%,28.627452%,36.862746%);stroke-opacity:1;stroke-miterlimit:10;" d="M 97.987132 19.229444 C 106.802513 20.688747 113.101341 27.225829 113.101341 35.966756 L 113.101341 66.731245 C 113.101341 75.740207 104.226397 82.411306 95.187653 82.411306 L 69.247798 82.411306 C 58.228571 82.411306 48.594194 92.909353 48.594194 103.541418 L 48.594194 121.827377 L 35.579594 121.827377 C 26.138797 121.827377 20.971673 114.679771 18.618919 105.149629 C 15.521623 92.358392 15.655641 84.689606 18.618919 72.44933 C 21.239708 61.787484 29.504128 57.335121 38.944925 57.335121 L 88.010265 57.335121 L 88.010265 50.172623 L 55.756691 50.172623 L 55.756691 35.966756 C 55.756691 26.674867 58.273244 21.62687 72.062168 19.229444 C 76.737894 18.425338 80.594623 17.93394 86.1638 17.919049 C 91.688304 17.889268 98.210495 19.199662 97.987132 19.229444 Z M 62.934079 37.63453 C 62.934079 40.627591 65.316614 42.995235 68.309675 42.995235 C 71.258062 42.995235 73.68527 40.6127 73.68527 37.63453 C 73.68527 34.671252 71.258062 32.244044 68.309675 32.244044 C 65.316614 32.244044 62.934079 34.686143 62.934079 37.63453 Z M 62.934079 37.63453 " transform="matrix(0.262326,0,0,0.262326,1.44,1.44)"/>
<path style="fill-rule:nonzero;fill:rgb(100%,75.686276%,2.745098%);fill-opacity:1;stroke-width:11;stroke-linecap:butt;stroke-linejoin:round;stroke:rgb(20.392157%,28.627452%,36.862746%);stroke-opacity:1;stroke-miterlimit:10;" d="M 70.8709 152.770557 C 62.07041 151.311254 55.756691 144.774172 55.756691 136.033245 L 55.756691 105.268756 C 55.756691 96.259794 64.646526 89.588694 73.68527 89.588694 L 99.610234 89.588694 C 110.644352 89.588694 120.263839 79.090648 120.263839 68.458583 L 120.263839 50.172623 L 133.278439 50.172623 C 142.734126 50.172623 147.90125 57.32023 150.254004 66.850372 C 153.336409 79.641609 153.202391 87.310395 150.254004 99.550671 C 147.633215 110.212517 139.368795 114.66488 129.913107 114.66488 L 80.847767 114.66488 L 80.847767 121.827377 L 113.101341 121.827377 L 113.101341 136.033245 C 113.101341 145.325134 110.584788 150.373131 96.795864 152.770557 C 92.135029 153.574663 88.263409 154.066061 82.694232 154.080951 C 77.169728 154.110733 70.662428 152.800339 70.885791 152.770557 Z M 105.938844 134.36547 C 105.938844 131.37241 103.556309 129.004766 100.563248 129.004766 C 97.614861 129.004766 95.187653 131.387301 95.187653 134.36547 C 95.187653 137.328749 97.614861 139.755957 100.563248 139.755957 C 103.556309 139.755957 105.938844 137.313858 105.938844 134.36547 Z M 105.938844 134.36547 " transform="matrix(0.262326,0,0,0.262326,1.44,1.44)"/>
<path style=" stroke:none;fill-rule:nonzero;fill:rgb(0.784314%,46.666667%,74.117649%);fill-opacity:1;" d="M 24.042969 6.140625 C 22.582031 6.144531 21.570312 6.273438 20.34375 6.484375 C 16.726562 7.113281 16.066406 8.4375 16.066406 10.875 L 16.066406 14.601562 L 24.527344 14.601562 L 24.527344 16.480469 L 11.65625 16.480469 C 9.179688 16.480469 7.011719 17.648438 6.324219 20.445312 C 5.546875 23.65625 5.511719 25.667969 6.324219 29.023438 C 6.941406 31.523438 8.296875 33.398438 10.773438 33.398438 L 14.1875 33.398438 L 14.1875 28.601562 C 14.1875 25.8125 16.714844 23.058594 19.605469 23.058594 L 26.410156 23.058594 C 28.78125 23.058594 31.109375 21.308594 31.109375 18.945312 L 31.109375 10.875 C 31.109375 8.582031 29.457031 6.867188 27.144531 6.484375 C 27.203125 6.476562 25.492188 6.132812 24.042969 6.140625 Z M 19.359375 9.898438 C 20.132812 9.898438 20.769531 10.535156 20.769531 11.3125 C 20.769531 12.09375 20.132812 12.71875 19.359375 12.71875 C 18.574219 12.71875 17.949219 12.097656 17.949219 11.3125 C 17.949219 10.539062 18.574219 9.898438 19.359375 9.898438 Z M 19.359375 9.898438 "/>
<path style=" stroke:none;fill-rule:nonzero;fill:rgb(100%,75.686276%,2.745098%);fill-opacity:1;" d="M 23.132812 41.859375 C 24.59375 41.855469 25.609375 41.726562 26.832031 41.515625 C 30.449219 40.886719 31.109375 39.5625 31.109375 37.125 L 31.109375 33.398438 L 22.648438 33.398438 L 22.648438 31.519531 L 35.519531 31.519531 C 38 31.519531 40.167969 30.351562 40.855469 27.554688 C 41.628906 24.34375 41.664062 22.332031 40.855469 18.976562 C 40.238281 16.476562 38.882812 14.601562 36.402344 14.601562 L 32.988281 14.601562 L 32.988281 19.398438 C 32.988281 22.1875 30.464844 24.941406 27.570312 24.941406 L 20.769531 24.941406 C 18.398438 24.941406 16.066406 26.691406 16.066406 29.054688 L 16.066406 37.125 C 16.066406 39.417969 17.722656 41.132812 20.03125 41.515625 C 19.976562 41.523438 21.683594 41.867188 23.132812 41.859375 Z M 27.820312 38.101562 C 27.046875 38.101562 26.410156 37.464844 26.410156 36.6875 C 26.410156 35.90625 27.046875 35.28125 27.820312 35.28125 C 28.605469 35.28125 29.230469 35.902344 29.230469 36.6875 C 29.230469 37.460938 28.605469 38.101562 27.820312 38.101562 Z M 27.820312 38.101562 "/>
</g>
</svg>
