<svg width="32" height="32" viewBox="0 0 32 32" fill="none" xmlns="http://www.w3.org/2000/svg">
<rect x="8" y="10" width="16" height="14" fill="#EEEEEE"/>
<path d="M16 4C8.83192 4 3 9.83192 3 17C3 24.1681 8.83192 30 16 30C23.1681 30 29 24.1681 29 17C29 9.83192 23.1681 4 16 4ZM21.2579 20.726C21.4695 20.9375 21.4695 21.2805 21.2579 21.4921L20.4921 22.2579C20.2805 22.4694 19.9376 22.4694 19.726 22.2579L16 18.5319L12.274 22.2579C12.0624 22.4694 11.7195 22.4694 11.5079 22.2579L10.7421 21.4921C10.5305 21.2806 10.5305 20.9376 10.7421 20.726L14.4681 16.9999L10.7421 13.2739C10.5305 13.0624 10.5305 12.7194 10.7421 12.5079L11.5079 11.742C11.7195 11.5305 12.0624 11.5305 12.274 11.742L16 15.468L19.726 11.742C19.9376 11.5305 20.2805 11.5305 20.4921 11.742L21.2579 12.5079C21.4695 12.7194 21.4695 13.0624 21.2579 13.2739L17.5319 16.9999L21.2579 20.726Z" fill="#F44336"/>
</svg>
