<svg width="32" height="32" viewBox="0 0 32 32" fill="none" xmlns="http://www.w3.org/2000/svg">
<rect x="10" y="9" width="12" height="17" fill="#EEEEEE"/>
<path d="M16 4C8.81996 4 3 9.82169 3 17.0006C3 24.1795 8.81996 30 16 30C23.18 30 29 24.18 29 17.0006C29 9.82169 23.18 4 16 4ZM17.3266 24.2315C17.3266 24.4811 17.1244 24.6833 16.8748 24.6833H15.1264C15.0066 24.6833 14.8916 24.6357 14.8069 24.551C14.7222 24.4662 14.6746 24.3513 14.6746 24.2315V15.8358C14.6746 15.5862 14.8768 15.384 15.1264 15.384H16.8748C17.1244 15.384 17.3266 15.5862 17.3266 15.8358V24.2315ZM15.989 13.5102C15.1328 13.5102 14.4227 12.8001 14.4227 11.9231C14.4227 11.046 15.1328 10.3567 15.989 10.3567C16.8667 10.3567 17.5762 11.0454 17.5762 11.9231C17.5762 12.8007 16.8661 13.5102 15.989 13.5102Z" fill="#1890FF"/>
</svg>
