<svg xmlns="http://www.w3.org/2000/svg" xmlns:xlink="http://www.w3.org/1999/xlink" fill="none" version="1.1" width="48" height="48" viewBox="0 0 48 48"><defs><clipPath id="master_svg0_11_023"><rect x="0" y="0" width="48" height="48" rx="0"/></clipPath></defs><g style="mix-blend-mode:passthrough" clip-path="url(#master_svg0_11_023)"><g style="mix-blend-mode:passthrough"><ellipse cx="23.5" cy="14.5" rx="10.5" ry="10.5" fill="#787878" fill-opacity="1"/></g><g style="mix-blend-mode:passthrough"><path d="M9.5188,28.000000000000004Q8.904160000000001,28.617369,8.43268,29.28104Q7.961194,29.94471,7.641815,30.6421Q7.322436,31.33949,7.161218,32.05737Q7,32.77525,7,33.5Q7,33.75776,7.0204772,34.015209999999996Q7.0409545,34.27266,7.0818596,34.52918Q7.122765,34.7857,7.183999,35.04067Q7.245234,35.29564,7.32665,35.54845Q7.408067,35.80126,7.509469,36.05129Q7.610871,36.30133,7.732014,36.54799Q7.853158,36.794650000000004,7.993751,37.03734Q8.13434,37.28004,8.29405,37.51818Q8.45375,37.75631,8.63218,37.98933Q8.81061,38.222300000000004,9.00734,38.4497Q9.20406,38.677,9.418610000000001,38.8981Q9.63316,39.1192,9.86502,39.3335Q10.09687,39.5478,10.34547,39.7548Q10.59407,39.9619,10.85882,40.1611Q11.12357,40.3604,11.40383,40.5514Q11.684090000000001,40.7424,11.97918,40.9246Q12.274280000000001,41.106899999999996,12.5835,41.28Q12.89272,41.4531,13.215309999999999,41.6166Q13.53791,41.7801,13.87311,41.9337Q14.20831,42.087199999999996,14.55531,42.2304Q14.9023,42.373599999999996,15.26025,42.5061Q15.61821,42.6387,15.98625,42.7602Q16.354300000000002,42.8817,16.73156,42.9919Q17.108800000000002,43.1021,17.4944,43.2007Q17.8799,43.2994,18.2729,43.3862Q18.6658,43.473,19.0652,43.5479Q19.4645,43.6227,19.869300000000003,43.6853Q20.2742,43.748,20.683500000000002,43.7982Q21.0928,43.8485,21.5056,43.8864Q21.9184,43.9242,22.3337,43.9494Q22.749000000000002,43.9747,23.1658,43.9874Q23.5827,44,24,44Q24.4173,44,24.8342,43.9874Q25.251,43.9747,25.6663,43.9494Q26.0816,43.9242,26.4944,43.8864Q26.9072,43.8485,27.3165,43.7982Q27.7258,43.748,28.1307,43.6853Q28.5355,43.6227,28.9348,43.5479Q29.3342,43.473,29.7271,43.3862Q30.1201,43.2994,30.5056,43.2007Q30.8912,43.1021,31.2684,42.9919Q31.6457,42.8817,32.0137,42.7602Q32.3818,42.6387,32.7397,42.5061Q33.0977,42.373599999999996,33.4447,42.2304Q33.7917,42.087199999999996,34.1269,41.9337Q34.4621,41.7801,34.7847,41.6166Q35.107299999999995,41.4531,35.4165,41.28Q35.7257,41.106899999999996,36.0208,40.9246Q36.3159,40.7424,36.596199999999996,40.5514Q36.876400000000004,40.3604,37.1412,40.1611Q37.4059,39.9619,37.6545,39.7548Q37.903099999999995,39.5478,38.135000000000005,39.3335Q38.3668,39.1192,38.5814,38.8981Q38.7959,38.677,38.9927,38.4497Q39.1894,38.222300000000004,39.3678,37.98933Q39.5462,37.75631,39.7059,37.51818Q39.8657,37.28004,40.0062,37.03734Q40.1468,36.794650000000004,40.268,36.54799Q40.3891,36.30133,40.4905,36.05129Q40.5919,35.80126,40.6733,35.54845Q40.7548,35.29564,40.816,35.04067Q40.8772,34.7857,40.9181,34.52918Q40.959,34.27266,40.9795,34.015209999999996Q41,33.75776,41,33.5Q41,32.77525,40.8388,32.05737Q40.6776,31.33949,40.3582,30.6421Q40.0388,29.94471,39.5673,29.28104Q39.0958,28.617369,38.4812,28L9.5188,28L9.5188,28.000000000000004Z" fill-rule="evenodd" fill="#787878" fill-opacity="1"/></g></g></svg>