<svg xmlns="http://www.w3.org/2000/svg" xmlns:xlink="http://www.w3.org/1999/xlink" fill="none" version="1.1" width="48" height="48" viewBox="0 0 48 48"><defs><clipPath id="master_svg0_11_252"><rect x="0" y="0" width="48" height="48" rx="0"/></clipPath></defs><g style="mix-blend-mode:passthrough" clip-path="url(#master_svg0_11_252)"><g style="mix-blend-mode:passthrough"><path d="M12,15C12,8.37258,17.37258,3,24,3C30.6274,3,36,8.37258,36,15L36,18C36,18.3368,35.9861,18.670299999999997,35.9589,19L32,19L32,15C32,10.58172,28.4183,7,24,7C19.58172,7,16,10.58172,16,15L16,19L12.0410739,19C12.0138714,18.670299999999997,12,18.3368,12,18L12,15Z" fill-rule="evenodd" fill="#787878" fill-opacity="1"/></g><g style="mix-blend-mode:passthrough"><path d="M12,17C9.79086,17,8,18.79086,8,21L8,40C8,42.2091,9.79086,44,12,44L36,44C38.2091,44,40,42.2091,40,40L40,21C40,18.79086,38.2091,17,36,17L12,17ZM24,35Q24.1227,35,24.2453,34.994Q24.3679,34.988,24.4901,34.975899999999996Q24.6122,34.963899999999995,24.7337,34.9459Q24.8551,34.9279,24.9755,34.9039Q25.0958,34.879999999999995,25.2149,34.8502Q25.334,34.8203,25.4514,34.7847Q25.5689,34.7491,25.6844,34.7077Q25.8,34.666399999999996,25.9134,34.6194Q26.0268,34.5724,26.1378,34.5199Q26.2487,34.4675,26.357,34.4096Q26.4652,34.3517,26.5705,34.2886Q26.6758,34.2255,26.7779,34.1573Q26.8799,34.089200000000005,26.9785,34.016Q27.0771,33.9429,27.172,33.864999999999995Q27.2668,33.7872,27.3578,33.7048Q27.4487,33.622299999999996,27.5355,33.5355Q27.6223,33.4487,27.7048,33.3578Q27.7872,33.2668,27.8651,33.172Q27.9429,33.0771,28.016,32.9785Q28.0892,32.8799,28.1573,32.7778Q28.2255,32.6758,28.2886,32.570499999999996Q28.3517,32.465199999999996,28.4096,32.357Q28.4675,32.2487,28.5199,32.1378Q28.5724,32.0268,28.6194,31.9134Q28.6664,31.8,28.7077,31.6844Q28.7491,31.5689,28.7847,31.4514Q28.8203,31.334,28.8502,31.2149Q28.88,31.0958,28.9039,30.9755Q28.9279,30.8551,28.9459,30.7337Q28.9639,30.6122,28.9759,30.490099999999998Q28.988,30.3679,28.994,30.2453Q29,30.122700000000002,29,30Q29,29.877299999999998,28.994,29.7547Q28.988,29.6321,28.9759,29.509900000000002Q28.9639,29.3878,28.9459,29.2663Q28.9279,29.1449,28.9039,29.0245Q28.88,28.9042,28.8502,28.7851Q28.8203,28.666,28.7847,28.5486Q28.7491,28.4311,28.7077,28.3156Q28.6664,28.2,28.6194,28.0866Q28.5724,27.9732,28.5199,27.8622Q28.4675,27.7513,28.4096,27.643Q28.3517,27.5348,28.2886,27.4295Q28.2255,27.324199999999998,28.1573,27.222099999999998Q28.0892,27.1201,28.016,27.0215Q27.9429,26.92291,27.8651,26.82803Q27.7872,26.733150000000002,27.7048,26.64221Q27.6223,26.55126,27.5355,26.46447Q27.4487,26.377670000000002,27.3578,26.29524Q27.2668,26.21282,27.172,26.13495Q27.0771,26.05708,26.9785,25.98396Q26.8799,25.91084,26.7778,25.84265Q26.6758,25.774459999999998,26.5705,25.71136Q26.4652,25.64826,26.357,25.59039Q26.2487,25.53253,26.1378,25.48005Q26.0268,25.42757,25.9134,25.3806Q25.8,25.33363,25.6844,25.292279999999998Q25.5689,25.25093,25.4514,25.2153Q25.334,25.17967,25.2149,25.149839999999998Q25.0958,25.12002,24.9755,25.096069999999997Q24.8551,25.07213,24.7337,25.054119999999998Q24.6122,25.03611,24.4901,25.024079999999998Q24.3679,25.012050000000002,24.2453,25.00602Q24.1227,25,24,25Q23.877299999999998,25,23.7547,25.00602Q23.6321,25.012050000000002,23.509900000000002,25.024079999999998Q23.3878,25.03611,23.2663,25.054119999999998Q23.1449,25.07213,23.0245,25.096069999999997Q22.9042,25.12002,22.7851,25.149839999999998Q22.666,25.17967,22.5486,25.2153Q22.4311,25.25093,22.3155,25.292279999999998Q22.2,25.33363,22.0866,25.3806Q21.9732,25.42757,21.8622,25.48005Q21.7513,25.53253,21.643,25.59039Q21.5348,25.64825,21.4295,25.71136Q21.324199999999998,25.774459999999998,21.222099999999998,25.84265Q21.1201,25.91084,21.0215,25.98396Q20.9229,26.05708,20.828,26.13495Q20.7332,26.21282,20.642200000000003,26.29524Q20.551299999999998,26.377670000000002,20.4645,26.46447Q20.3777,26.55126,20.2952,26.64221Q20.2128,26.733150000000002,20.134900000000002,26.82803Q20.0571,26.92291,19.984,27.0215Q19.910800000000002,27.1201,19.8427,27.222099999999998Q19.7745,27.324199999999998,19.711399999999998,27.4295Q19.6483,27.5348,19.590400000000002,27.643Q19.5325,27.7513,19.4801,27.8622Q19.427599999999998,27.9732,19.3806,28.0866Q19.3336,28.2,19.292299999999997,28.3155Q19.2509,28.4311,19.2153,28.5486Q19.1797,28.666,19.1498,28.7851Q19.119999999999997,28.9042,19.0961,29.0245Q19.0721,29.1449,19.0541,29.2663Q19.036099999999998,29.3878,19.0241,29.509900000000002Q19.012,29.6321,19.006,29.7547Q19,29.877299999999998,19,30Q19,30.122700000000002,19.006,30.2453Q19.012,30.3679,19.0241,30.490099999999998Q19.036099999999998,30.6122,19.0541,30.7337Q19.0721,30.8551,19.0961,30.9754Q19.119999999999997,31.0958,19.1498,31.2149Q19.1797,31.334,19.2153,31.4514Q19.2509,31.5689,19.292299999999997,31.6844Q19.3336,31.8,19.3806,31.9134Q19.427599999999998,32.0268,19.4801,32.1378Q19.5325,32.2487,19.590400000000002,32.357Q19.6483,32.465199999999996,19.711399999999998,32.570499999999996Q19.7745,32.6758,19.8427,32.7778Q19.910800000000002,32.8799,19.984,32.9785Q20.0571,33.0771,20.134900000000002,33.172Q20.2128,33.2668,20.2952,33.3578Q20.3777,33.4487,20.4645,33.5355Q20.551299999999998,33.622299999999996,20.642200000000003,33.7048Q20.7332,33.7872,20.828,33.864999999999995Q20.9229,33.9429,21.0215,34.016Q21.1201,34.089200000000005,21.222099999999998,34.1573Q21.324199999999998,34.2255,21.4295,34.2886Q21.5348,34.3517,21.643,34.4096Q21.7513,34.4675,21.8622,34.5199Q21.9732,34.5724,22.0866,34.6194Q22.2,34.666399999999996,22.3155,34.7077Q22.4311,34.7491,22.5486,34.7847Q22.666,34.8203,22.7851,34.8502Q22.9042,34.879999999999995,23.0245,34.9039Q23.1449,34.9279,23.2663,34.9459Q23.3878,34.963899999999995,23.509900000000002,34.975899999999996Q23.6321,34.988,23.7547,34.994Q23.877299999999998,35,24,35Z" fill-rule="evenodd" fill="#787878" fill-opacity="1"/></g></g></svg>