<svg xmlns="http://www.w3.org/2000/svg" xmlns:xlink="http://www.w3.org/1999/xlink" fill="none" version="1.1" width="48" height="48" viewBox="0 0 48 48"><defs><clipPath id="master_svg0_19_542"><rect x="0" y="0" width="48" height="48" rx="0"/></clipPath></defs><g style="mix-blend-mode:passthrough" clip-path="url(#master_svg0_19_542)"><g style="mix-blend-mode:passthrough"><path d="M4.9999995750122075,10.999995708465576C2.999986575012207,12.999995708465576,6.499986575012207,16.499995708465576,7.999976575012207,14.999995708465576Q9.499956575012206,13.499995708465576,9.999996575012208,12.999995708465576L9.999996575012208,29.999995708465576C9.999996575012208,32.999995708465576,16.000006575012208,32.999995708465576,16.000006575012208,29.999995708465576C16.000006575012208,29.256195708465576,16.030706575012207,27.651595708465575,16.069306575012206,25.636095708465575C16.186506575012206,19.522695708465577,16.376006575012205,9.628075708465577,16.000006575012208,8.499995708465576C15.500006575012208,6.999995708465576,15.000006575012208,6.500012708465576,13.999996575012206,6.000006708465576C12.999996575012206,5.499999708465576,11.999996575012208,5.499986708465576,10.999996575012208,5.999999708465576C9.999996575012208,6.500013708465576,7.000016575012207,9.000005708465576,4.9999995750122075,10.999995708465576Z" fill="#8F8F8F" fill-opacity="1"/></g><g style="mix-blend-mode:passthrough"><path d="M27.5,29.5Q29.5,31.375,32,32C34.5,32.625,36,32.5,37.5,32C39,31.5,41,30,41.5,28.5C41.559799999999996,28.3206,41.6268,28.1339,41.696600000000004,27.9393C42.2106,26.5072,42.8804,24.6411,42,22C41.4162,20.2485,39.8097,19.689999999999998,38.772800000000004,19.3295C38.0336,19.072499999999998,37.5838,18.9162,38,18.5C39,17.5,40.125,17.5,41,15.5C41.875,13.5,41.5,12,41,10Q40.5,8,37,6.5Q34.125,5.75,32,6.5C29.875,7.25,29,8.00001,28,9.5C27,10.99999,30,12.99999,31,12.5C32,12.00001,32.125,11.5,33,11C33.875,10.5,35.5,10.5,36.5,12C37.5,13.5,36.5,14.99999,35.5,15.5C34.5,16.00001,32.625,16.125,32,17C31.375,17.875,31.375,19.25,32,20C32.625,20.75,33.875,20.5,35,21C36.125,21.5,36.5,21.75,37,23C37.5,24.25,37.75,25.25,37,26.5C36.25,27.75,34.5,27.5,33.5,27C32.5,26.5,31.5,25.5,30,24.5Q29.76396,24.3426,29.5403,24.3586Q28.34264,24.4442,27.5,29.5Z" fill="#8C8C8C" fill-opacity="1"/></g><g style="mix-blend-mode:passthrough"><path d="M14.75001220703125,36.885364013671875C13.25001220703125,38.885364013671875,14.25001220703125,41.885364013671875,17.75001220703125,41.885364013671875L29.00001220703125,41.885364013671875C31.00001220703125,41.885364013671875,31.00001220703125,37.385364013671875,29.00001220703125,37.385364013671875L21.25001220703125,37.385364013671875L29.25001220703125,27.885364013671875Q31.25001220703125,24.385344013671876,29.25001220703125,19.385344013671876C27.25001220703125,14.385344013671876,18.00000220703125,14.999984013671876,15.50000220703125,18.499994013671873C13.00000220703125,22.000004013671877,16.00000220703125,25.000004013671877,17.50000220703125,24.500004013671877C19.00000220703125,24.000004013671877,19.25001220703125,22.885344013671876,21.25001220703125,21.385344013671876C23.25001220703125,19.885344013671876,25.75001220703125,23.385344013671876,23.75001220703125,25.885364013671875C21.75001220703125,28.385364013671875,16.25001220703125,34.885364013671875,14.75001220703125,36.885364013671875Z" fill="#696969" fill-opacity="1"/></g></g></svg>