<svg xmlns="http://www.w3.org/2000/svg" xmlns:xlink="http://www.w3.org/1999/xlink" fill="none" version="1.1" width="48" height="48" viewBox="0 0 48 48"><defs><clipPath id="master_svg0_19_291"><rect x="0" y="0" width="48" height="48" rx="0"/></clipPath></defs><g style="mix-blend-mode:passthrough" clip-path="url(#master_svg0_19_291)"><rect x="0" y="0" width="48" height="48" rx="0" fill="#FFFFFF" fill-opacity="1"/><g style="mix-blend-mode:passthrough"><path d="M30.6464,43.9205Q31.2541,42.8732,31.7923,41.6454Q32.330600000000004,40.4176,32.7892,39.0328Q33.247699999999995,37.6479,33.6178,36.1325Q33.987899999999996,34.617000000000004,34.2625,33L42.9737,33Q42.747,33.477900000000005,42.4965,33.943799999999996Q42.246,34.4097,41.9724,34.8624Q41.6988,35.3151,41.4028,35.7534Q41.1067,36.1918,40.789,36.6147Q40.4713,37.0375,40.1326,37.4439Q39.794,37.8503,39.4353,38.239Q39.0767,38.6278,38.6989,38.9981Q38.3211,39.3683,37.9252,39.7191Q37.5293,40.0698,37.1162,40.4002Q36.7031,40.7306,36.2739,41.0397Q35.8447,41.3489,35.4005,41.636Q34.956199999999995,41.9232,34.4981,42.1876Q34.04,42.452,33.569199999999995,42.6931Q33.098299999999995,42.9341,32.615899999999996,43.1511Q32.1336,43.3681,31.6409,43.5606Q31.1482,43.7531,30.6464,43.9205ZM17.3536,43.9205Q16.8518,43.7531,16.359099999999998,43.5606Q15.8664,43.3681,15.3841,43.1511Q14.9017,42.9341,14.4308,42.6931Q13.96,42.452,13.5019,42.1876Q13.0438,41.9232,12.59954,41.636Q12.15532,41.3489,11.72612,41.0397Q11.29692,40.7306,10.88383,40.4002Q10.47074,40.0698,10.0748,39.7191Q9.67887,39.3683,9.30109,38.9981Q8.92332,38.6278,8.56466,38.239Q8.20601,37.8503,7.86738,37.4439Q7.52875,37.0375,7.21101,36.6147Q6.893269999999999,36.1918,6.59722,35.7534Q6.30117,35.3151,6.02757,34.8624Q5.75396,34.4097,5.5035,33.943799999999996Q5.25303,33.477900000000005,5.02633,33L13.7375,33Q14.0121,34.617000000000004,14.3822,36.1325Q14.7523,37.6479,15.2108,39.0328Q15.6694,40.4176,16.207700000000003,41.6454Q16.7459,42.8732,17.3536,43.9205ZM19.8921,44.5943Q19.6143,44.0956,19.3508,43.5311Q19.0873,42.9667,18.8399,42.3402Q18.5925,41.7137,18.3628,41.0293Q18.1331,40.3449,17.9225,39.6071Q17.712,38.8692,17.522,38.0828Q17.3321,37.2963,17.163899999999998,36.4663Q16.9957,35.6364,16.8505,34.7684Q16.705199999999998,33.900400000000005,16.5838,33L31.4162,33Q31.2948,33.900400000000005,31.1495,34.7684Q31.0043,35.6364,30.8361,36.4663Q30.6679,37.2963,30.478,38.0828Q30.288,38.8692,30.0774,39.6071Q29.8669,40.3449,29.6372,41.0293Q29.4075,41.7137,29.1601,42.3402Q28.9127,42.9667,28.6492,43.5311Q28.3857,44.0956,28.1079,44.5943Q26.074,45,24,45Q21.926,45,19.8921,44.5943ZM3.875388,30L13.3215,30Q13,27.0445,13,24Q13,20.9555,13.3215,18L3.875388,18Q3.439999,19.4603,3.219999,20.9682Q3,22.4761,3,24Q3,25.5239,3.219999,27.0318Q3.439999,28.5397,3.875388,30ZM5.02633,15L13.7375,15Q14.0121,13.383,14.3822,11.86755Q14.7523,10.35211,15.2108,8.96724Q15.6694,7.58237,16.207700000000003,6.35457Q16.7459,5.1267700000000005,17.3536,4.0795200000000005Q16.8518,4.24694,16.359099999999998,4.4393899999999995Q15.8664,4.63185,15.3841,4.84887Q14.9017,5.06589,14.4308,5.3069299999999995Q13.96,5.54796,13.5019,5.81238Q13.0438,6.07681,12.59954,6.36397Q12.15532,6.65113,11.72612,6.9602900000000005Q11.29692,7.26944,10.88383,7.59982Q10.47074,7.93019,10.0748,8.280940000000001Q9.67887,8.631689999999999,9.30109,9.00193Q8.92332,9.37217,8.56466,9.76096Q8.20601,10.149750000000001,7.86738,10.5561Q7.52875,10.96245,7.21101,11.38534Q6.893269999999999,11.80822,6.59722,12.24657Q6.30117,12.68491,6.02757,13.1376Q5.75396,13.5903,5.5035,14.0562Q5.25303,14.5221,5.02633,15ZM19.8921,3.405704Q21.926,2.9999999999999964,24,3Q26.074,3,28.1079,3.405704Q28.3857,3.904436,28.6492,4.46888Q28.9127,5.033329999999999,29.1601,5.659800000000001Q29.4075,6.28627,29.6372,6.97067Q29.8669,7.65507,30.0774,8.39291Q30.288,9.13076,30.478,9.91723Q30.6679,10.703700000000001,30.8361,11.53366Q31.0043,12.36361,31.1495,13.2316Q31.2948,14.0996,31.4162,15L16.5838,15Q16.705199999999998,14.0996,16.8505,13.2316Q16.9957,12.36361,17.163899999999998,11.53366Q17.3321,10.703700000000001,17.522,9.91723Q17.712,9.13076,17.9225,8.39291Q18.1331,7.65507,18.3628,6.97067Q18.5925,6.28627,18.8399,5.659800000000001Q19.0873,5.033329999999999,19.3508,4.46888Q19.6143,3.904436,19.8921,3.405704ZM30.6464,4.0795200000000005Q31.1482,4.24693,31.6409,4.4393899999999995Q32.1336,4.63185,32.615899999999996,4.84887Q33.098299999999995,5.06589,33.569199999999995,5.30692Q34.04,5.54795,34.4981,5.81238Q34.956199999999995,6.07681,35.4005,6.36397Q35.8447,6.65113,36.2739,6.96028Q36.7031,7.26944,37.1162,7.59981Q37.5293,7.93019,37.9252,8.280940000000001Q38.3211,8.631689999999999,38.6989,9.00193Q39.0767,9.37217,39.4353,9.76096Q39.794,10.149750000000001,40.1326,10.5561Q40.4713,10.96245,40.789,11.38533Q41.1067,11.80822,41.4028,12.24656Q41.6988,12.68491,41.9724,13.1376Q42.246,13.5903,42.4965,14.0562Q42.747,14.5221,42.9737,15L34.2625,15Q33.987899999999996,13.383,33.6178,11.86755Q33.247699999999995,10.35211,32.7892,8.96724Q32.330600000000004,7.58237,31.7923,6.35457Q31.2541,5.1267700000000005,30.6464,4.0795200000000005ZM44.1246,18L34.6785,18Q35,20.9555,35,24Q35,27.0445,34.6785,30L44.1246,30Q44.56,28.5397,44.78,27.0318Q45,25.5239,45,24Q45,22.4761,44.78,20.9682Q44.56,19.4603,44.1246,18ZM32,24Q32,27.0484,31.746,30L16.253999999999998,30Q16,27.0484,16,24Q16,20.9516,16.253999999999998,18L31.746,18Q32,20.9516,32,24Z" fill-rule="evenodd" fill="#787878" fill-opacity="1"/></g></g></svg>